<?xml version="1.0" encoding="UTF-8" standalone="no"?>
<svg
   xmlns:dc="http://purl.org/dc/elements/1.1/"
   xmlns:cc="http://creativecommons.org/ns#"
   xmlns:rdf="http://www.w3.org/1999/02/22-rdf-syntax-ns#"
   xmlns:svg="http://www.w3.org/2000/svg"
   xmlns="http://www.w3.org/2000/svg"
   xmlns:sodipodi="http://sodipodi.sourceforge.net/DTD/sodipodi-0.dtd"
   xmlns:inkscape="http://www.inkscape.org/namespaces/inkscape"
   width="63.5mm"
   height="14.552083mm"
   viewBox="0 0 63.5 14.552084"
   version="1.1"
   id="svg8"
   sodipodi:docname="logo.svg"
   inkscape:version="1.0.2-2 (e86c870879, 2021-01-15)">
  <sodipodi:namedview
     pagecolor="#ffffff"
     bordercolor="#666666"
     borderopacity="1"
     objecttolerance="10"
     gridtolerance="10"
     guidetolerance="10"
     inkscape:pageopacity="0"
     inkscape:pageshadow="2"
     inkscape:window-width="1680"
     inkscape:window-height="987"
     id="namedview9"
     showgrid="false"
     fit-margin-top="0"
     fit-margin-left="0"
     fit-margin-right="0"
     fit-margin-bottom="0"
     inkscape:zoom="3.814841"
     inkscape:cx="134.12752"
     inkscape:cy="41.049194"
     inkscape:window-x="-8"
     inkscape:window-y="-8"
     inkscape:window-maximized="1"
     inkscape:current-layer="svg8" />
  <defs
     id="defs2">
    <rect
       x="27.214287"
       y="114.14881"
       width="117.92857"
       height="16.630953"
       id="rect12" />
  </defs>
  <metadata
     id="metadata5">
    <rdf:RDF>
      <cc:Work
         rdf:about="">
        <dc:format>image/svg+xml</dc:format>
        <dc:type
           rdf:resource="http://purl.org/dc/dcmitype/StillImage" />
        <dc:title></dc:title>
      </cc:Work>
    </rdf:RDF>
  </metadata>
  <g
     id="layer1"
     transform="matrix(0.7310748,0,0,0.72066511,-32.354351,-69.485501)">
    <g
       id="g80">
      <path
         style="fill:#000000;stroke-width:0.171342"
         d="m 52.288208,116.46128 c -3.588213,-0.72164 -6.517248,-3.29781 -7.634345,-6.71466 -0.338427,-1.03514 -0.4084,-1.58942 -0.39682,-3.14335 0.02459,-3.29983 0.928672,-5.58227 2.978651,-7.519897 4.224416,-3.992879 10.536485,-3.43798 14.300465,1.257167 1.694594,2.11382 2.375191,3.98595 2.370299,6.52 -0.0035,1.77433 -0.252875,2.77002 -1.13865,4.54499 -0.754247,1.51141 -2.663868,3.35697 -4.258682,4.11582 -2.040892,0.97112 -4.339194,1.31836 -6.220918,0.93993 z m 2.460658,-2.54897 c 1.469973,-0.4584 2.396191,-1.0517 3.490249,-2.23572 0.921518,-0.99729 1.78652,-2.7114 1.606058,-3.18259 -0.04178,-0.1091 -0.656323,-0.36732 -1.365641,-0.57382 -0.70932,-0.20651 -1.39394,-0.41555 -1.521377,-0.46455 -0.157723,-0.0606 -0.294674,0.14681 -0.428921,0.64972 -0.593782,2.22442 -3.578152,3.38191 -5.825953,2.25959 -1.673253,-0.83544 -2.62378,-2.34888 -2.739556,-4.36195 -0.136872,-2.37985 0.98637,-4.27406 3.174463,-5.35336 1.020925,-0.50358 1.298398,-0.5637 2.601408,-0.5637 1.740885,0 2.911664,0.46091 4.208622,1.65685 1.543719,1.42347 2.118611,2.71303 2.277645,5.10905 l 0.107566,1.62063 1.499,0.462 c 0.824452,0.25411 1.537385,0.39978 1.584297,0.32372 0.260318,-0.42202 0.27286,-2.77385 0.02194,-4.11274 -0.968209,-5.166072 -5.501859,-8.898158 -10.335928,-8.508485 -3.350783,0.270102 -6.252654,2.227883 -7.654316,5.164065 -1.005773,2.10688 -1.177403,3.76554 -0.616865,5.9615 0.397069,1.55556 0.770652,2.32244 1.700342,3.49039 1.942148,2.43987 5.366728,3.54823 8.216972,2.6594 z m -1.519195,-7.31507 c 0,-0.30898 -0.163167,-0.3286 1.454986,0.17499 1.737398,0.54071 1.797338,0.5383 1.797338,-0.072 0,-1.6363 -1.668426,-3.14918 -3.124536,-2.83325 -1.684984,0.36559 -2.36649,2.19256 -1.139178,3.05388 0.427289,0.29987 1.01139,0.11299 1.01139,-0.32359 z m 13.242958,2.33529 c -0.344675,-0.21059 -0.642852,-0.60655 -0.833595,-1.10698 -0.850852,-2.23227 0.898977,-4.21888 3.085566,-3.50307 0.498689,0.16325 0.696151,0.32932 0.737289,0.62006 0.05502,0.38893 0.04551,0.39157 -0.462232,0.1285 -0.660804,-0.34239 -1.719996,-0.34486 -2.20406,-0.005 -0.480718,0.33737 -0.804463,1.4172 -0.658543,2.19653 0.224968,1.20153 1.606082,1.83656 2.669538,1.22745 0.572649,-0.32799 0.684701,-0.31671 0.684701,0.069 0,0.6928 -2.075764,0.94975 -3.018664,0.37368 z m 3.947933,0.10188 c -0.04787,-0.12498 -0.06471,-0.95378 -0.03742,-1.84176 0.04235,-1.37792 0.09351,-1.62292 0.34917,-1.67192 0.184289,-0.0353 0.299556,0.0481 0.299556,0.21683 0,0.24848 0.04744,0.24966 0.505025,0.0126 0.718696,-0.37237 1.206725,-0.33948 1.206725,0.0814 0,0.26842 -0.114118,0.34301 -0.524778,0.34301 -1.043769,0 -1.186972,0.20765 -1.186972,1.72112 0,1.11237 -0.04868,1.36605 -0.262134,1.36605 -0.144176,0 -0.301302,-0.10227 -0.349171,-0.22726 z m 3.007755,-1.65934 c 0,-1.56264 0.04409,-1.8866 0.256762,-1.8866 0.212672,0 0.256763,0.32396 0.256763,1.8866 0,1.56263 -0.04409,1.8866 -0.256763,1.8866 -0.21267,0 -0.256762,-0.32397 -0.256762,-1.8866 z m 1.840131,1.76837 c -0.164757,-0.0432 -0.299556,-0.23539 -0.299556,-0.42723 0,-0.27018 0.06751,-0.31782 0.299556,-0.2114 0.164756,0.0756 0.646185,0.14171 1.069843,0.14699 0.704636,0.009 0.770288,-0.026 0.770288,-0.40798 0,-0.35735 -0.122935,-0.44899 -0.85257,-0.63548 -1.257257,-0.32136 -1.653555,-1.06669 -0.944768,-1.77685 0.239036,-0.23951 0.570583,-0.34302 1.09864,-0.34302 0.980134,0 1.297809,0.13191 1.297809,0.53891 0,0.2738 -0.05696,0.30015 -0.331099,0.15315 -0.507893,-0.27235 -1.545851,-0.22119 -1.661935,0.0819 -0.148044,0.38655 0.209405,0.71304 0.904367,0.82604 1.229864,0.19997 1.653485,1.15201 0.808818,1.81772 -0.433164,0.3414 -1.368956,0.44421 -2.159393,0.23724 z m 3.886118,-0.12378 c -0.268273,-0.19654 -0.342121,-0.50257 -0.393197,-1.62933 -0.03457,-0.76304 -0.131751,-1.38734 -0.215925,-1.38734 -0.08413,0 -0.153055,-0.11577 -0.153055,-0.25726 0,-0.1415 0.07707,-0.25726 0.171175,-0.25726 0.09413,0 0.171174,-0.23154 0.171174,-0.51453 0,-0.40019 0.07609,-0.51453 0.342349,-0.51453 0.266273,0 0.34235,0.11434 0.34235,0.51453 0,0.47369 0.04761,0.51453 0.599122,0.51453 0.418425,0 0.599111,0.0776 0.599111,0.25726 0,0.17968 -0.180686,0.25726 -0.599111,0.25726 h -0.599122 v 1.16627 c 0,1.25171 0.166305,1.57788 0.804525,1.57788 0.235849,0 0.393708,0.10316 0.393708,0.25726 0,0.33667 -1.010037,0.3472 -1.463104,0.0152 z m 2.318977,-1.63202 c 0,-1.79537 0.01902,-1.89917 0.348143,-1.89917 0.331469,0 0.345806,0.0882 0.299555,1.84168 -0.04206,1.59485 -0.0887,1.8494 -0.348142,1.89918 -0.270708,0.0519 -0.299556,-0.12539 -0.299556,-1.84169 z m 1.888986,1.41403 c -0.19862,-0.253 -0.319751,-0.56803 -0.269186,-0.70007 0.05054,-0.13203 0.09196,-0.3468 0.09196,-0.47726 0,-0.33371 0.636557,-0.64606 1.540583,-0.75594 0.625024,-0.076 0.770286,-0.15831 0.770286,-0.43663 0,-0.30679 -0.113501,-0.34282 -1.074516,-0.34115 -0.866797,0.001 -1.065004,-0.0482 -1.02533,-0.25727 0.07,-0.36878 1.971758,-0.45342 2.442608,-0.10871 0.292164,0.21391 0.350567,0.48952 0.401252,1.89369 0.05609,1.55227 0.04022,1.64334 -0.285295,1.64334 -0.189533,0 -0.373958,-0.0883 -0.40985,-0.19611 -0.04891,-0.14713 -0.156565,-0.14713 -0.430947,0 -0.645231,0.34599 -1.356919,0.23877 -1.75154,-0.26389 z m 1.780127,-0.22179 c 0.358165,-0.13644 0.439089,-0.28011 0.439089,-0.77957 v -0.6123 l -0.641916,0.1161 c -0.880003,0.15917 -1.241016,0.37115 -1.241016,0.72872 0,0.64707 0.592242,0.87146 1.443843,0.54705 z m 2.32201,-1.19224 c 0,-1.53925 0.04674,-1.89917 0.246664,-1.89917 0.135653,0 0.294393,0.0774 0.35273,0.17197 0.07087,0.11496 0.212403,0.11496 0.426795,0 0.176381,-0.0946 0.591003,-0.17197 0.921363,-0.17197 0.911601,0 1.133591,0.44656 1.133591,2.28035 0,1.35316 -0.0325,1.51179 -0.299555,1.46082 -0.250925,-0.0479 -0.313447,-0.3075 -0.385143,-1.59904 -0.08457,-1.52306 -0.0912,-1.54251 -0.54785,-1.59531 -0.947743,-0.10958 -1.145157,0.17444 -1.19981,1.72612 -0.04163,1.18368 -0.09783,1.41994 -0.349229,1.46806 -0.270708,0.0518 -0.299556,-0.12558 -0.299556,-1.84183 z m 9.243452,-0.61286 v -2.48688 h 1.540571 c 1.234679,0 1.540572,0.0496 1.540572,0.24975 0,0.19106 -0.291621,0.26159 -1.241016,0.30014 l -1.241016,0.0504 -0.05315,0.64315 -0.05315,0.64316 h 1.122972 c 1.008852,0 1.122961,0.0349 1.122961,0.34302 0,0.30784 -0.114109,0.34303 -1.112635,0.34303 h -1.112635 v 1.20056 c 0,0.95283 -0.05294,1.20056 -0.256762,1.20056 -0.216425,0 -0.256762,-0.39066 -0.256762,-2.48688 z m 4.340472,2.31682 c -0.59365,-0.24003 -0.91698,-0.8634 -0.91698,-1.76789 0,-0.69154 0.0848,-0.9175 0.50036,-1.33391 1.01249,-1.01447 2.75197,-0.48876 2.75197,0.8317 v 0.53914 l -1.3266,0.0501 c -1.21652,0.046 -1.32226,0.0786 -1.27413,0.39311 0.0881,0.57622 0.71678,0.98124 1.39654,0.8998 0.33279,-0.0399 0.73987,-0.13183 0.90463,-0.20436 0.22904,-0.10082 0.29956,-0.0515 0.29956,0.20951 0,0.51582 -1.42763,0.74984 -2.33535,0.38281 z m 1.72668,-2.21559 c 0.16774,-0.27193 -0.10761,-0.72201 -0.54311,-0.88793 -0.55658,-0.21202 -1.31211,0.14786 -1.38496,0.65968 -0.051,0.35818 0.01,0.38429 0.88857,0.38429 0.51879,0 0.98657,-0.0702 1.0395,-0.15604 z m 1.63572,0.51163 c 0,-1.78483 0.0207,-1.89917 0.34235,-1.89917 0.1925,0 0.34235,0.11434 0.34235,0.26121 0,0.23034 0.0495,0.22878 0.41804,-0.0132 0.51546,-0.33841 1.18504,-0.26522 1.26172,0.1379 0.0466,0.24485 -0.0675,0.30014 -0.6192,0.30014 -0.37196,0 -0.75906,0.0999 -0.86021,0.22205 -0.1012,0.12213 -0.20688,0.79663 -0.23494,1.49889 -0.0422,1.05547 -0.10293,1.28677 -0.35056,1.33411 -0.27069,0.0517 -0.29955,-0.12569 -0.29955,-1.84191 z m 2.90998,0 c 0,-1.78483 0.0207,-1.89917 0.34235,-1.89917 0.18828,0 0.34235,0.0799 0.34235,0.17754 0,0.12238 0.10283,0.12238 0.33109,0 0.59423,-0.31864 1.50593,-0.21543 1.79889,0.20364 0.37777,0.5404 0.38593,3.39202 0.01,3.39202 -0.20355,0 -0.25676,-0.2465 -0.25676,-1.1894 0,-1.58236 -0.1927,-2.06928 -0.81892,-2.06928 -0.87126,0 -1.04896,0.29018 -1.1017,1.79899 -0.0401,1.14596 -0.097,1.37959 -0.34745,1.42753 -0.27071,0.0518 -0.29955,-0.12564 -0.29955,-1.84187 z m 4.48863,1.60704 c -0.48857,-0.34288 -0.51674,-1.27135 -0.0514,-1.69332 0.18098,-0.16411 0.66241,-0.33679 1.06985,-0.38372 1.15396,-0.13295 1.21305,-0.16816 0.98828,-0.58894 -0.1712,-0.32055 -0.30875,-0.35599 -1.12001,-0.28858 -0.8104,0.0673 -0.92483,0.038 -0.92483,-0.2374 0,-0.26841 0.14429,-0.31425 0.98896,-0.31425 1.5861,0 1.74983,0.2015 1.74983,2.15358 0,1.28298 -0.0504,1.61962 -0.24249,1.61962 -0.13338,0 -0.27186,-0.0883 -0.30774,-0.19611 -0.0489,-0.14713 -0.15656,-0.14713 -0.43095,0 -0.51313,0.27516 -1.27096,0.24392 -1.71952,-0.0709 z m 1.81653,-0.52139 c 0.27272,-0.1914 0.37438,-0.41086 0.33764,-0.72892 -0.0484,-0.4184 -0.10772,-0.45075 -0.73726,-0.40159 -0.84234,0.0658 -1.36963,0.58023 -1.10414,1.07726 0.21597,0.40433 0.96567,0.43088 1.50376,0.0532 z m 2.19653,0.67404 c -0.0627,-0.0629 -0.11412,-0.91186 -0.11412,-1.8866 0,-1.65792 0.0221,-1.77226 0.34235,-1.77226 0.18829,0 0.34235,0.0799 0.34235,0.17754 0,0.12238 0.10282,0.12238 0.3311,0 0.52942,-0.2839 1.4674,-0.21226 1.78206,0.1361 0.39637,0.43884 0.41953,3.45956 0.0265,3.45956 -0.20561,0 -0.25676,-0.25852 -0.25676,-1.2976 0,-1.51046 -0.18097,-1.96108 -0.78757,-1.96108 -0.95733,0 -1.09536,0.2277 -1.09536,1.80688 0,1.09549 -0.056,1.4518 -0.22823,1.4518 -0.12554,0 -0.27959,-0.0515 -0.34235,-0.11434 z m 4.53066,-0.28984 c -0.73317,-0.78195 -0.62083,-2.53567 0.1993,-3.11123 0.20242,-0.14205 0.7345,-0.25779 1.18513,-0.25779 h 0.81778 v -0.68604 c 0,-0.49548 0.0713,-0.68604 0.25677,-0.68604 0.21682,0 0.25676,0.40019 0.25676,2.57264 0,2.10519 -0.044,2.57264 -0.24249,2.57264 -0.13338,0 -0.27186,-0.0883 -0.30774,-0.19611 -0.0489,-0.14713 -0.15657,-0.14713 -0.43095,0 -0.59788,0.3206 -1.32009,0.23397 -1.73456,-0.20807 z m 1.82178,-0.37734 c 0.31924,-0.22404 0.38043,-0.42801 0.38043,-1.26797 0,-1.08313 -0.1075,-1.20919 -1.03134,-1.20919 -0.63076,0 -1.02275,0.55176 -1.02275,1.43961 0,1.14623 0.80644,1.64616 1.67366,1.03755 z m 2.75773,0.52431 c -0.96875,-0.52753 -1.10991,-2.37894 -0.23865,-3.12983 0.48518,-0.41815 1.56211,-0.52493 2.14449,-0.21264 0.26838,0.14392 0.67635,1.09452 0.67998,1.58445 5.4e-4,0.0707 -0.61527,0.12863 -1.36844,0.12863 -1.25527,0 -1.36939,0.0286 -1.36939,0.34301 0,0.60325 0.63688,1.07155 1.34301,0.98751 0.34403,-0.041 0.7603,-0.13378 0.92505,-0.20631 0.22904,-0.10082 0.29956,-0.0515 0.29956,0.20951 0,0.5708 -1.55978,0.76172 -2.41561,0.29567 z m 1.90208,-2.31148 c 0,-0.80461 -1.49523,-1.07279 -1.88744,-0.33851 -0.31086,0.58199 -0.18949,0.67758 0.86039,0.67758 0.90894,0 1.02705,-0.039 1.02705,-0.33907 z m 1.27576,2.3841 c -0.10653,-0.17265 0.11602,-0.49833 1.60235,-2.34517 l 0.58663,-0.72892 h -1.04766 c -0.81715,0 -1.04768,-0.0566 -1.04768,-0.25726 0,-0.20851 0.27578,-0.25726 1.45499,-0.25726 1.05338,0 1.45317,0.0592 1.44841,0.21438 -0.003,0.11791 -0.50409,0.83182 -1.11217,1.58646 l -1.10559,1.37207 1.11217,0.0507 c 0.83574,0.0381 1.11217,0.11271 1.11217,0.30014 0,0.19853 -0.29484,0.24943 -1.44489,0.24943 -0.84683,0 -1.492,-0.0764 -1.55873,-0.18459 z m -54.853528,-4.53192 c 0,-0.14292 0.152155,-0.25726 0.34235,-0.25726 0.190194,0 0.34235,0.11434 0.34235,0.25726 0,0.14293 -0.152156,0.25727 -0.34235,0.25727 -0.190195,0 -0.34235,-0.11434 -0.34235,-0.25727 z m 8.216401,0 c 0,-0.14292 0.152153,-0.25726 0.342349,-0.25726 0.190197,0 0.34235,0.11434 0.34235,0.25726 0,0.14293 -0.152153,0.25727 -0.34235,0.25727 -0.190196,0 -0.342349,-0.11434 -0.342349,-0.25727 z"
         id="path77" />
    </g>
  </g>
</svg>
